<svg width="241" height="229" viewBox="0 0 241 229" fill="none" xmlns="http://www.w3.org/2000/svg">
<g filter="url(#filter0_d_675_151)">
<circle cx="121" cy="115" r="80" fill="#FF9900"/>
</g>
<path d="M121.545 138.636C118.545 138.636 115.871 138.121 113.523 137.091C111.189 136.061 109.333 134.629 107.955 132.795C106.591 130.947 105.848 128.803 105.727 126.364H111.455C111.576 127.864 112.091 129.159 113 130.25C113.909 131.326 115.098 132.159 116.568 132.75C118.038 133.341 119.667 133.636 121.455 133.636C123.455 133.636 125.227 133.288 126.773 132.591C128.318 131.894 129.53 130.924 130.409 129.682C131.288 128.439 131.727 127 131.727 125.364C131.727 123.652 131.303 122.144 130.455 120.841C129.606 119.523 128.364 118.492 126.727 117.75C125.091 117.008 123.091 116.636 120.727 116.636H117V111.636H120.727C122.576 111.636 124.197 111.303 125.591 110.636C127 109.97 128.098 109.03 128.886 107.818C129.689 106.606 130.091 105.182 130.091 103.545C130.091 101.97 129.742 100.598 129.045 99.4318C128.348 98.2651 127.364 97.3561 126.091 96.7045C124.833 96.053 123.348 95.7273 121.636 95.7273C120.03 95.7273 118.515 96.0227 117.091 96.6136C115.682 97.1894 114.53 98.0303 113.636 99.1364C112.742 100.227 112.258 101.545 112.182 103.091H106.727C106.818 100.652 107.553 98.5151 108.932 96.6818C110.311 94.8333 112.114 93.3939 114.341 92.3636C116.583 91.3333 119.045 90.8182 121.727 90.8182C124.606 90.8182 127.076 91.4015 129.136 92.5682C131.197 93.7197 132.78 95.2424 133.886 97.1364C134.992 99.0303 135.545 101.076 135.545 103.273C135.545 105.894 134.856 108.129 133.477 109.977C132.114 111.826 130.258 113.106 127.909 113.818V114.182C130.848 114.667 133.144 115.917 134.795 117.932C136.447 119.932 137.273 122.409 137.273 125.364C137.273 127.894 136.583 130.167 135.205 132.182C133.841 134.182 131.977 135.758 129.614 136.909C127.25 138.061 124.561 138.636 121.545 138.636Z" fill="white"/>
<defs>
<filter id="filter0_d_675_151" x="9" y="3" width="224" height="224" filterUnits="userSpaceOnUse" color-interpolation-filters="sRGB">
<feFlood flood-opacity="0" result="BackgroundImageFix"/>
<feColorMatrix in="SourceAlpha" type="matrix" values="0 0 0 0 0 0 0 0 0 0 0 0 0 0 0 0 0 0 127 0" result="hardAlpha"/>
<feMorphology radius="16" operator="dilate" in="SourceAlpha" result="effect1_dropShadow_675_151"/>
<feOffset/>
<feGaussianBlur stdDeviation="8"/>
<feComposite in2="hardAlpha" operator="out"/>
<feColorMatrix type="matrix" values="0 0 0 0 1 0 0 0 0 0.6 0 0 0 0 0 0 0 0 0.46 0"/>
<feBlend mode="normal" in2="BackgroundImageFix" result="effect1_dropShadow_675_151"/>
<feBlend mode="normal" in="SourceGraphic" in2="effect1_dropShadow_675_151" result="shape"/>
</filter>
</defs>
</svg>
