<svg width="160" height="160" viewBox="0 0 160 160" fill="none" xmlns="http://www.w3.org/2000/svg">
<circle cx="80" cy="80" r="72" fill="#FF9900" stroke="white" stroke-width="16"/>
<path d="M80.5455 103.636C77.5455 103.636 74.8712 103.121 72.5227 102.091C70.1894 101.061 68.3333 99.6288 66.9545 97.7955C65.5909 95.947 64.8485 93.803 64.7273 91.3636H70.4545C70.5758 92.8636 71.0909 94.1591 72 95.25C72.9091 96.3258 74.0985 97.1591 75.5682 97.75C77.0379 98.3409 78.6667 98.6364 80.4545 98.6364C82.4545 98.6364 84.2273 98.2879 85.7727 97.5909C87.3182 96.8939 88.5303 95.9242 89.4091 94.6818C90.2879 93.4394 90.7273 92 90.7273 90.3636C90.7273 88.6515 90.303 87.1439 89.4545 85.8409C88.6061 84.5227 87.3636 83.4924 85.7273 82.75C84.0909 82.0076 82.0909 81.6364 79.7273 81.6364H76V76.6364H79.7273C81.5758 76.6364 83.197 76.303 84.5909 75.6364C86 74.9697 87.0985 74.0303 87.8864 72.8182C88.6894 71.6061 89.0909 70.1818 89.0909 68.5455C89.0909 66.9697 88.7424 65.5985 88.0455 64.4318C87.3485 63.2651 86.3636 62.3561 85.0909 61.7045C83.8333 61.053 82.3485 60.7273 80.6364 60.7273C79.0303 60.7273 77.5152 61.0227 76.0909 61.6136C74.6818 62.1894 73.5303 63.0303 72.6364 64.1364C71.7424 65.2273 71.2576 66.5455 71.1818 68.0909H65.7273C65.8182 65.6515 66.553 63.5151 67.9318 61.6818C69.3106 59.8333 71.1136 58.3939 73.3409 57.3636C75.5833 56.3333 78.0455 55.8182 80.7273 55.8182C83.6061 55.8182 86.0758 56.4015 88.1364 57.5682C90.197 58.7197 91.7803 60.2424 92.8864 62.1364C93.9924 64.0303 94.5455 66.0758 94.5455 68.2727C94.5455 70.8939 93.8561 73.1288 92.4773 74.9773C91.1136 76.8258 89.2576 78.1061 86.9091 78.8182V79.1818C89.8485 79.6667 92.1439 80.9167 93.7955 82.9318C95.447 84.9318 96.2727 87.4091 96.2727 90.3636C96.2727 92.8939 95.5833 95.1667 94.2045 97.1818C92.8409 99.1818 90.9773 100.758 88.6136 101.909C86.25 103.061 83.5606 103.636 80.5455 103.636Z" fill="white"/>
</svg>
