<svg width="160" height="160" viewBox="0 0 160 160" fill="none" xmlns="http://www.w3.org/2000/svg">
<circle cx="80" cy="80" r="72" fill="#FFB800" stroke="white" stroke-width="16"/>
<path d="M64.8182 103V98.9091L80.1818 82.0909C81.9848 80.1212 83.4697 78.4091 84.6364 76.9545C85.803 75.4848 86.6667 74.1061 87.2273 72.8182C87.803 71.5152 88.0909 70.1515 88.0909 68.7273C88.0909 67.0909 87.697 65.6742 86.9091 64.4773C86.1364 63.2803 85.0758 62.3561 83.7273 61.7045C82.3788 61.053 80.8636 60.7273 79.1818 60.7273C77.3939 60.7273 75.8333 61.0985 74.5 61.8409C73.1818 62.5682 72.1591 63.5909 71.4318 64.9091C70.7197 66.2273 70.3636 67.7727 70.3636 69.5455H65C65 66.8182 65.6288 64.4242 66.8864 62.3636C68.1439 60.303 69.8561 58.697 72.0227 57.5455C74.2045 56.3939 76.6515 55.8182 79.3636 55.8182C82.0909 55.8182 84.5076 56.3939 86.6136 57.5455C88.7197 58.697 90.3712 60.25 91.5682 62.2045C92.7652 64.1591 93.3636 66.3333 93.3636 68.7273C93.3636 70.4394 93.053 72.1136 92.4318 73.75C91.8258 75.3712 90.7652 77.1818 89.25 79.1818C87.75 81.1667 85.6667 83.5909 83 86.4545L72.5455 97.6364V98H94.1818V103H64.8182Z" fill="white"/>
</svg>
