<svg width="210" height="210" viewBox="0 0 210 210" fill="none" xmlns="http://www.w3.org/2000/svg">
<g filter="url(#filter0_d_354_163)">
<circle cx="105" cy="100" r="72" fill="#FF9900" stroke="white" stroke-width="16"/>
<path d="M105.545 123.636C102.545 123.636 99.8712 123.121 97.5227 122.091C95.1894 121.061 93.3333 119.629 91.9545 117.795C90.5909 115.947 89.8485 113.803 89.7273 111.364H95.4545C95.5758 112.864 96.0909 114.159 97 115.25C97.9091 116.326 99.0985 117.159 100.568 117.75C102.038 118.341 103.667 118.636 105.455 118.636C107.455 118.636 109.227 118.288 110.773 117.591C112.318 116.894 113.53 115.924 114.409 114.682C115.288 113.439 115.727 112 115.727 110.364C115.727 108.652 115.303 107.144 114.455 105.841C113.606 104.523 112.364 103.492 110.727 102.75C109.091 102.008 107.091 101.636 104.727 101.636H101V96.6364H104.727C106.576 96.6364 108.197 96.303 109.591 95.6364C111 94.9697 112.098 94.0303 112.886 92.8182C113.689 91.6061 114.091 90.1818 114.091 88.5455C114.091 86.9697 113.742 85.5985 113.045 84.4318C112.348 83.2651 111.364 82.3561 110.091 81.7045C108.833 81.053 107.348 80.7273 105.636 80.7273C104.03 80.7273 102.515 81.0227 101.091 81.6136C99.6818 82.1894 98.5303 83.0303 97.6364 84.1364C96.7424 85.2273 96.2576 86.5455 96.1818 88.0909H90.7273C90.8182 85.6515 91.553 83.5151 92.9318 81.6818C94.3106 79.8333 96.1136 78.3939 98.3409 77.3636C100.583 76.3333 103.045 75.8182 105.727 75.8182C108.606 75.8182 111.076 76.4015 113.136 77.5682C115.197 78.7197 116.78 80.2424 117.886 82.1364C118.992 84.0303 119.545 86.0758 119.545 88.2727C119.545 90.8939 118.856 93.1288 117.477 94.9773C116.114 96.8258 114.258 98.1061 111.909 98.8182V99.1818C114.848 99.6667 117.144 100.917 118.795 102.932C120.447 104.932 121.273 107.409 121.273 110.364C121.273 112.894 120.583 115.167 119.205 117.182C117.841 119.182 115.977 120.758 113.614 121.909C111.25 123.061 108.561 123.636 105.545 123.636Z" fill="white"/>
</g>
<defs>
<filter id="filter0_d_354_163" x="0" y="0" width="210" height="210" filterUnits="userSpaceOnUse" color-interpolation-filters="sRGB">
<feFlood flood-opacity="0" result="BackgroundImageFix"/>
<feColorMatrix in="SourceAlpha" type="matrix" values="0 0 0 0 0 0 0 0 0 0 0 0 0 0 0 0 0 0 127 0" result="hardAlpha"/>
<feOffset dy="5"/>
<feGaussianBlur stdDeviation="12.5"/>
<feComposite in2="hardAlpha" operator="out"/>
<feColorMatrix type="matrix" values="0 0 0 0 0 0 0 0 0 0 0 0 0 0 0 0 0 0 0.25 0"/>
<feBlend mode="normal" in2="BackgroundImageFix" result="effect1_dropShadow_354_163"/>
<feBlend mode="normal" in="SourceGraphic" in2="effect1_dropShadow_354_163" result="shape"/>
</filter>
</defs>
</svg>
