<svg width="390" height="844" viewBox="0 0 390 844" fill="none" xmlns="http://www.w3.org/2000/svg">
<g clip-path="url(#clip0_666_1902)">
<rect width="390" height="844" rx="48" fill="#57BE71"/>
<path d="M126 351.189V381.171C126 392.469 133.986 399.951 144.498 399.951C146.892 399.987 149.268 399.539 151.485 398.635C153.701 397.731 155.712 396.389 157.398 394.689V399.147H164.67V351.183H157.338V380.787C157.338 388.377 152.118 393.507 145.368 393.519C138.534 393.507 133.386 388.515 133.386 380.787V351.183L126 351.189ZM170.172 351.189V399.147H177.15V394.755C178.819 396.423 180.8 397.746 182.981 398.648C185.161 399.55 187.498 400.013 189.858 400.011C192.295 400.073 194.72 399.647 196.99 398.758C199.26 397.868 201.328 396.533 203.074 394.832C204.82 393.13 206.207 391.096 207.155 388.85C208.102 386.604 208.59 384.19 208.59 381.753C208.59 379.315 208.102 376.902 207.155 374.655C206.207 372.409 204.82 370.375 203.074 368.674C201.328 366.972 199.26 365.637 196.99 364.748C194.72 363.858 192.295 363.432 189.858 363.495C187.508 363.493 185.181 363.957 183.012 364.859C180.842 365.761 178.872 367.084 177.216 368.751V351.189H170.172ZM229.488 363.525C227.099 363.514 224.732 363.976 222.522 364.884C220.313 365.791 218.304 367.126 216.612 368.812C214.92 370.498 213.578 372.502 212.662 374.708C211.747 376.914 211.276 379.28 211.278 381.669C211.278 392.091 219.516 399.891 230.196 399.891C233.162 399.951 236.1 399.307 238.768 398.01C241.436 396.714 243.759 394.802 245.544 392.433L240.444 388.725C239.282 390.351 237.742 391.669 235.957 392.566C234.171 393.463 232.194 393.912 230.196 393.873C227.363 393.908 224.612 392.925 222.442 391.102C220.273 389.28 218.83 386.739 218.376 383.943H247.278V381.669C247.278 371.265 239.754 363.525 229.494 363.525H229.488ZM266.466 363.921C264.81 363.906 263.178 364.322 261.731 365.128C260.284 365.933 259.07 367.101 258.21 368.517V364.203H251.232V399.147H258.276V379.275C258.276 373.863 261.63 370.371 266.238 370.371H269.208V363.933L266.466 363.921ZM229.248 369.585C231.835 369.549 234.353 370.422 236.364 372.051C238.374 373.68 239.75 375.962 240.252 378.501H218.544C219.036 376.013 220.368 373.77 222.317 372.146C224.265 370.523 226.712 369.619 229.248 369.585ZM189.294 369.621C190.886 369.62 192.463 369.933 193.935 370.541C195.406 371.15 196.744 372.043 197.87 373.168C198.997 374.293 199.891 375.63 200.501 377.101C201.111 378.572 201.425 380.148 201.426 381.741C201.427 383.333 201.114 384.91 200.505 386.381C199.897 387.853 199.004 389.19 197.879 390.317C196.753 391.443 195.417 392.337 193.946 392.947C192.475 393.557 190.898 393.872 189.306 393.873C186.111 393.846 183.057 392.556 180.81 390.285C178.558 388.016 177.296 384.949 177.3 381.753C177.295 378.557 178.554 375.49 180.804 373.221C183.047 370.946 186.1 369.652 189.294 369.621ZM126 411.921V459.747H160.332V451.545H135.276V439.725H159.66V431.835H135.276V420.105H160.332V411.915L126 411.921ZM213.36 414.381V424.491H206.46V432.519H213.384V451.377C213.384 456.135 216.816 459.903 222.984 459.903H232.842L232.806 451.875H225.96C223.872 451.875 222.528 450.975 222.528 449.091V432.483H232.8V424.491H222.564V414.375L213.36 414.381ZM181.578 423.543C179.111 423.536 176.668 424.02 174.389 424.966C172.111 425.911 170.043 427.301 168.307 429.052C166.57 430.804 165.198 432.884 164.272 435.17C163.346 437.456 162.883 439.904 162.911 442.371C162.939 444.837 163.457 447.274 164.434 449.539C165.412 451.804 166.83 453.852 168.606 455.564C170.382 457.276 172.48 458.618 174.779 459.512C177.078 460.406 179.532 460.835 181.998 460.773C186.172 460.816 190.231 459.403 193.476 456.777V459.969H202.578V424.491H193.524V427.647C190.279 424.978 186.205 423.527 182.004 423.543H181.584H181.578ZM252.204 423.585C242.694 423.585 236.004 427.449 236.004 434.901C236.004 440.061 239.682 443.427 247.62 445.071L256.308 447.039C259.728 447.699 260.64 448.593 260.64 449.979C260.64 452.205 258.012 453.597 253.878 453.597C248.622 453.597 245.61 452.457 244.44 448.509H235.242C236.562 455.895 242.184 460.809 253.536 460.809H253.548C264.06 460.809 270 455.895 270 449.091C270 444.255 266.49 440.643 259.146 439.089L251.382 437.529C246.876 436.713 245.454 435.885 245.454 434.253C245.454 432.111 247.62 430.803 251.634 430.803C255.966 430.803 259.146 431.955 260.064 435.885H269.172C268.656 428.511 263.226 423.585 252.204 423.585ZM182.802 431.085C188.862 431.145 193.716 436.107 193.644 442.167C193.646 443.599 193.363 445.017 192.811 446.338C192.26 447.66 191.451 448.859 190.432 449.865C189.413 450.871 188.204 451.664 186.876 452.199C185.547 452.733 184.126 452.999 182.694 452.979C179.791 452.964 177.014 451.798 174.971 449.735C172.929 447.672 171.79 444.883 171.804 441.981C171.818 439.078 172.985 436.3 175.048 434.258C177.11 432.216 179.899 431.07 182.802 431.085Z" fill="black"/>
<path d="M53.4297 32.25C51.2734 32.25 49.5781 30.9688 49.2656 29.125H51.5938C51.8203 29.8828 52.5625 30.3828 53.4688 30.3828C55.0234 30.3828 55.9688 28.9062 55.9062 26.3203C55.8984 26.3203 55.8828 26.3203 55.8828 26.3203H55.8672H55.8594C55.4531 27.4219 54.3438 28.1641 52.8594 28.1641C50.7344 28.1641 49.1172 26.5859 49.1172 24.4453C49.1172 22.125 50.9453 20.4688 53.4609 20.4688C55.0859 20.4688 56.4375 21.1953 57.2188 22.5312C57.8438 23.4922 58.1641 24.7578 58.1641 26.2656C58.1641 30 56.3984 32.25 53.4297 32.25ZM53.4766 26.3906C54.6484 26.3906 55.5391 25.5312 55.5391 24.3906C55.5391 23.2422 54.6406 22.3516 53.4922 22.3516C52.3359 22.3516 51.4219 23.2422 51.4219 24.375C51.4219 25.5312 52.3047 26.3906 53.4766 26.3906ZM61.0547 30.4844C60.3516 30.4844 59.7969 29.9219 59.7969 29.2266C59.7969 28.5234 60.3516 27.9688 61.0547 27.9688C61.75 27.9688 62.3125 28.5234 62.3125 29.2266C62.3125 29.9219 61.75 30.4844 61.0547 30.4844ZM61.0547 24.8984C60.3516 24.8984 59.7969 24.3359 59.7969 23.6406C59.7969 22.9375 60.3516 22.3828 61.0547 22.3828C61.75 22.3828 62.3125 22.9375 62.3125 23.6406C62.3125 24.3359 61.75 24.8984 61.0547 24.8984ZM69.4531 32V29.9922H63.8438V27.9844C64.8281 26.1094 66.0547 24.1328 68.3672 20.7266H71.6953V28.1016H73.1641V29.9922H71.6953V32H69.4531ZM65.9141 28.1094V28.1719H69.5V22.3984H69.4531C67.8125 24.8047 66.8281 26.3438 65.9141 28.1094ZM77.1953 32V22.8906H77.1484L74.2734 24.875V22.75L77.1875 20.7266H79.5312V32H77.1953Z" fill="black"/>
<g clip-path="url(#clip1_666_1902)">
<rect x="302.85" y="20" width="3.2" height="12" rx="1" fill="black"/>
<rect x="297.55" y="22.4" width="3.2" height="9.6" rx="1" fill="black"/>
<rect x="292.25" y="25" width="3.2" height="7" rx="1" fill="black"/>
<rect x="286.95" y="27.4" width="3.2" height="4.6" rx="1" fill="black"/>
</g>
<path d="M320.508 28.1335C321.212 28.1335 321.895 28.3184 322.498 28.6709L322.742 28.8137C322.927 28.9219 322.959 29.1753 322.808 29.3266L320.724 31.4043C320.596 31.5319 320.389 31.5319 320.261 31.4043L318.191 29.3399C318.04 29.1893 318.071 28.9372 318.254 28.8282L318.496 28.6847C319.104 28.3233 319.796 28.1335 320.508 28.1335Z" fill="black"/>
<path d="M320.508 24.3168C322.258 24.3168 323.939 24.8974 325.307 25.9724L325.501 26.1243C325.655 26.2455 325.668 26.4737 325.53 26.6121L324.286 27.8525C324.171 27.9673 323.989 27.9804 323.858 27.8835L323.707 27.7708C322.782 27.0838 321.667 26.7152 320.508 26.7152C319.342 26.7152 318.221 27.0883 317.294 27.7833L317.142 27.897C317.011 27.9947 316.829 27.9819 316.713 27.8668L315.47 26.6269C315.331 26.4887 315.344 26.2611 315.498 26.1397L315.69 25.9876C317.062 24.903 318.75 24.3168 320.508 24.3168Z" fill="black"/>
<path d="M320.508 20.5C323.286 20.5 325.941 21.4796 328.044 23.2752L328.223 23.4285C328.368 23.5524 328.377 23.7731 328.242 23.9078L327.002 25.1441C326.882 25.2639 326.69 25.2723 326.559 25.1635L326.406 25.0351C324.751 23.6512 322.676 22.8984 320.508 22.8984C318.333 22.8984 316.252 23.6564 314.595 25.049L314.441 25.178C314.311 25.2873 314.118 25.2791 313.998 25.1591L312.758 23.9229C312.624 23.7885 312.632 23.5681 312.776 23.4441L312.955 23.2908C315.06 21.4855 317.723 20.5 320.508 20.5Z" fill="black"/>
<rect x="336.5" y="21.5" width="21" height="9" rx="1.33" fill="black"/>
<path opacity="0.4" fill-rule="evenodd" clip-rule="evenodd" d="M340.1 20.5H353.9C354.897 20.5 355.584 20.5008 356.117 20.5444C356.639 20.587 356.925 20.6655 357.135 20.7725C357.605 21.0122 357.988 21.3946 358.228 21.865C358.334 22.0749 358.413 22.3608 358.456 22.8826C358.499 23.4161 358.5 24.1034 358.5 25.1V26.9C358.5 27.8966 358.499 28.5839 358.456 29.1174C358.413 29.6392 358.334 29.9251 358.228 30.135C357.988 30.6054 357.605 30.9878 357.135 31.2275C356.925 31.3345 356.639 31.413 356.117 31.4556C355.584 31.4992 354.897 31.5 353.9 31.5H340.1C339.103 31.5 338.416 31.4992 337.883 31.4556C337.361 31.413 337.075 31.3345 336.865 31.2275C336.395 30.9878 336.012 30.6054 335.772 30.135C335.666 29.9251 335.587 29.6392 335.544 29.1174C335.501 28.5839 335.5 27.8966 335.5 26.9V25.1C335.5 24.1034 335.501 23.4161 335.544 22.8826C335.587 22.3608 335.666 22.0749 335.772 21.865C336.012 21.3946 336.395 21.0122 336.865 20.7725C337.075 20.6655 337.361 20.587 337.883 20.5444C338.416 20.5008 339.103 20.5 340.1 20.5ZM334.5 25.1C334.5 23.1398 334.5 22.1597 334.881 21.411C335.217 20.7525 335.752 20.217 336.411 19.8815C337.16 19.5 338.14 19.5 340.1 19.5H353.9C355.86 19.5 356.84 19.5 357.589 19.8815C358.248 20.217 358.783 20.7525 359.119 21.411C359.5 22.1597 359.5 23.1398 359.5 25.1V26.9C359.5 28.8602 359.5 29.8403 359.119 30.589C358.783 31.2475 358.248 31.783 357.589 32.1185C356.84 32.5 355.86 32.5 353.9 32.5H340.1C338.14 32.5 337.16 32.5 336.411 32.1185C335.752 31.783 335.217 31.2475 334.881 30.589C334.5 29.8403 334.5 28.8602 334.5 26.9V25.1ZM360.5 28C361.328 27.8 362 27.1046 362 26C362 24.8954 361.328 24.2 360.5 24L360.5 26L360.5 28Z" fill="black"/>
<rect x="128" y="831" width="134" height="5" rx="2.5" fill="#333333"/>
</g>
<defs>
<clipPath id="clip0_666_1902">
<rect width="390" height="844" rx="48" fill="white"/>
</clipPath>
<clipPath id="clip1_666_1902">
<rect width="20" height="14" fill="white" transform="translate(286.5 19)"/>
</clipPath>
</defs>
</svg>
