<svg width="942" height="150" viewBox="0 0 942 150" fill="none" xmlns="http://www.w3.org/2000/svg">
<path d="M172.5 149C65 150 0 116 0 116V0H518.5C518.5 0 505.5 16 442.5 61.5C379.5 107 351.5 114 351.5 114C351.5 114 280 148 172.5 149Z" fill="#FFD802"/>
<path d="M155.447 46.8182H160.983V63.821C160.983 65.7301 160.527 67.4006 159.615 68.8324C158.712 70.2642 157.446 71.3807 155.818 72.1818C154.19 72.9744 152.294 73.3707 150.129 73.3707C147.956 73.3707 146.055 72.9744 144.428 72.1818C142.8 71.3807 141.534 70.2642 140.631 68.8324C139.727 67.4006 139.276 65.7301 139.276 63.821V46.8182H144.811V63.348C144.811 64.3452 145.028 65.2315 145.463 66.0071C145.906 66.7827 146.528 67.392 147.33 67.8352C148.131 68.2784 149.064 68.5 150.129 68.5C151.203 68.5 152.136 68.2784 152.929 67.8352C153.73 67.392 154.348 66.7827 154.783 66.0071C155.226 65.2315 155.447 64.3452 155.447 63.348V46.8182ZM165.537 73V46.8182H170.983V56.6619H171.15C171.388 56.1335 171.733 55.5966 172.185 55.0511C172.645 54.4972 173.242 54.0369 173.975 53.6705C174.716 53.2955 175.637 53.108 176.736 53.108C178.168 53.108 179.489 53.483 180.699 54.233C181.909 54.9744 182.877 56.0952 183.601 57.5952C184.326 59.0866 184.688 60.9574 184.688 63.2074C184.688 65.3977 184.334 67.2472 183.627 68.7557C182.928 70.2557 181.973 71.3935 180.763 72.169C179.561 72.9361 178.215 73.3196 176.723 73.3196C175.667 73.3196 174.767 73.1449 174.026 72.7955C173.293 72.446 172.692 72.0071 172.223 71.4787C171.755 70.9418 171.397 70.4006 171.15 69.8551H170.907V73H165.537ZM170.868 63.1818C170.868 64.3494 171.03 65.3679 171.354 66.2372C171.678 67.1065 172.147 67.7841 172.76 68.2699C173.374 68.7472 174.12 68.9858 174.998 68.9858C175.884 68.9858 176.634 68.7429 177.248 68.2571C177.861 67.7628 178.326 67.081 178.641 66.2116C178.965 65.3338 179.127 64.3239 179.127 63.1818C179.127 62.0483 178.969 61.0511 178.654 60.1903C178.338 59.3295 177.874 58.6562 177.26 58.1705C176.647 57.6847 175.892 57.4418 174.998 57.4418C174.111 57.4418 173.361 57.6761 172.748 58.1449C172.142 58.6136 171.678 59.2784 171.354 60.1392C171.03 61 170.868 62.0142 170.868 63.1818ZM197.271 73.3835C195.251 73.3835 193.512 72.9744 192.055 72.1562C190.606 71.3295 189.489 70.1619 188.705 68.6534C187.921 67.1364 187.529 65.3423 187.529 63.2713C187.529 61.2514 187.921 59.4787 188.705 57.9531C189.489 56.4276 190.593 55.2386 192.016 54.3864C193.448 53.5341 195.127 53.108 197.053 53.108C198.349 53.108 199.555 53.3168 200.671 53.7344C201.796 54.1435 202.776 54.7614 203.612 55.5881C204.455 56.4148 205.112 57.4545 205.58 58.7074C206.049 59.9517 206.283 61.4091 206.283 63.0795V64.5753H189.702V61.2003H201.157C201.157 60.4162 200.987 59.7216 200.646 59.1165C200.305 58.5114 199.832 58.0384 199.227 57.6974C198.63 57.348 197.935 57.1733 197.143 57.1733C196.316 57.1733 195.583 57.3651 194.944 57.7486C194.313 58.1236 193.819 58.6307 193.461 59.2699C193.103 59.9006 192.92 60.6037 192.911 61.3793V64.5881C192.911 65.5597 193.09 66.3991 193.448 67.1065C193.815 67.8139 194.33 68.3594 194.995 68.7429C195.66 69.1264 196.448 69.3182 197.36 69.3182C197.965 69.3182 198.519 69.233 199.022 69.0625C199.525 68.892 199.955 68.6364 200.313 68.2955C200.671 67.9545 200.944 67.5369 201.131 67.0426L206.168 67.375C205.913 68.5852 205.388 69.642 204.596 70.5455C203.812 71.4403 202.798 72.1392 201.553 72.642C200.317 73.1364 198.89 73.3835 197.271 73.3835ZM209.837 73V53.3636H215.117V56.7898H215.322C215.68 55.571 216.281 54.6506 217.124 54.0284C217.968 53.3977 218.94 53.0824 220.039 53.0824C220.312 53.0824 220.606 53.0994 220.921 53.1335C221.237 53.1676 221.513 53.2145 221.752 53.2741V58.1065C221.496 58.0298 221.143 57.9616 220.691 57.902C220.239 57.8423 219.826 57.8125 219.451 57.8125C218.65 57.8125 217.934 57.9872 217.303 58.3366C216.681 58.6776 216.187 59.1548 215.82 59.7685C215.462 60.3821 215.283 61.0895 215.283 61.8906V73H209.837ZM233.002 73V46.8182H250.644V51.3821H238.538V57.6207H249.737V62.1847H238.538V68.4361H250.695V73H233.002ZM260.542 73.3707C259.289 73.3707 258.173 73.1534 257.193 72.7188C256.213 72.2756 255.437 71.6236 254.866 70.7628C254.304 69.8935 254.022 68.8111 254.022 67.5156C254.022 66.4247 254.223 65.5085 254.623 64.767C255.024 64.0256 255.569 63.429 256.26 62.9773C256.95 62.5256 257.734 62.1847 258.612 61.9545C259.498 61.7244 260.427 61.5625 261.399 61.4688C262.541 61.3494 263.461 61.2386 264.16 61.1364C264.859 61.0256 265.366 60.8636 265.681 60.6506C265.997 60.4375 266.154 60.1222 266.154 59.7045V59.6278C266.154 58.8182 265.899 58.1918 265.387 57.7486C264.885 57.3054 264.169 57.0838 263.24 57.0838C262.26 57.0838 261.48 57.3011 260.9 57.7358C260.321 58.1619 259.937 58.6989 259.75 59.3466L254.713 58.9375C254.968 57.7443 255.471 56.7131 256.221 55.8438C256.971 54.9659 257.939 54.2926 259.123 53.8239C260.316 53.3466 261.697 53.108 263.265 53.108C264.356 53.108 265.4 53.2358 266.397 53.4915C267.403 53.7472 268.294 54.1435 269.069 54.6804C269.853 55.2173 270.471 55.9077 270.923 56.7514C271.375 57.5866 271.6 58.5881 271.6 59.7557V73H266.436V70.277H266.282C265.967 70.8906 265.545 71.4318 265.017 71.9006C264.488 72.3608 263.853 72.723 263.112 72.9872C262.37 73.2429 261.514 73.3707 260.542 73.3707ZM262.102 69.6122C262.903 69.6122 263.61 69.4545 264.224 69.1392C264.838 68.8153 265.319 68.3807 265.669 67.8352C266.018 67.2898 266.193 66.6719 266.193 65.9815V63.8977C266.022 64.0085 265.788 64.1108 265.49 64.2045C265.2 64.2898 264.872 64.3707 264.505 64.4474C264.139 64.5156 263.772 64.5795 263.406 64.6392C263.039 64.6903 262.707 64.7372 262.409 64.7798C261.77 64.8736 261.211 65.0227 260.734 65.2273C260.257 65.4318 259.886 65.7088 259.622 66.0582C259.358 66.3991 259.225 66.8253 259.225 67.3366C259.225 68.0781 259.494 68.6449 260.031 69.0369C260.576 69.4205 261.267 69.6122 262.102 69.6122ZM286.27 53.3636V57.4545H274.445V53.3636H286.27ZM277.13 48.6591H282.576V66.9659C282.576 67.4687 282.652 67.8608 282.806 68.142C282.959 68.4148 283.172 68.6065 283.445 68.7173C283.726 68.8281 284.05 68.8835 284.417 68.8835C284.672 68.8835 284.928 68.8622 285.184 68.8196C285.439 68.7685 285.635 68.7301 285.772 68.7045L286.628 72.7571C286.355 72.8423 285.972 72.9403 285.478 73.0511C284.983 73.1705 284.382 73.2429 283.675 73.2685C282.363 73.3196 281.212 73.1449 280.223 72.7443C279.243 72.3437 278.48 71.7216 277.935 70.8778C277.39 70.0341 277.121 68.9687 277.13 67.6818V48.6591ZM305.91 58.9631L300.924 59.2699C300.839 58.8437 300.656 58.4602 300.374 58.1193C300.093 57.7699 299.722 57.4929 299.262 57.2884C298.81 57.0753 298.269 56.9688 297.638 56.9688C296.795 56.9688 296.083 57.1477 295.504 57.5057C294.924 57.8551 294.634 58.3239 294.634 58.9119C294.634 59.3807 294.822 59.777 295.197 60.1009C295.572 60.4247 296.215 60.6847 297.127 60.8807L300.681 61.5966C302.59 61.9886 304.013 62.6193 304.951 63.4886C305.888 64.358 306.357 65.5 306.357 66.9148C306.357 68.2017 305.978 69.331 305.219 70.3026C304.469 71.2741 303.438 72.0327 302.126 72.5781C300.822 73.1151 299.317 73.3835 297.613 73.3835C295.013 73.3835 292.942 72.8423 291.4 71.7599C289.866 70.669 288.967 69.1861 288.702 67.3111L294.059 67.0298C294.221 67.8224 294.613 68.4276 295.235 68.8452C295.857 69.2543 296.654 69.4588 297.626 69.4588C298.58 69.4588 299.347 69.2756 299.927 68.9091C300.515 68.5341 300.813 68.0526 300.822 67.4645C300.813 66.9702 300.604 66.5653 300.195 66.25C299.786 65.9261 299.156 65.679 298.303 65.5085L294.903 64.831C292.985 64.4474 291.558 63.7827 290.62 62.8366C289.691 61.8906 289.227 60.6847 289.227 59.2188C289.227 57.9574 289.567 56.8707 290.249 55.9588C290.94 55.0469 291.907 54.3438 293.151 53.8494C294.404 53.3551 295.87 53.108 297.549 53.108C300.029 53.108 301.981 53.6321 303.404 54.6804C304.836 55.7287 305.671 57.1562 305.91 58.9631Z" fill="black"/>
<path d="M630.5 140.5C503 150 401 90 401 90C401 90 411.5 83.5 459 45C506.5 6.5 512 0 512 0H941.5C941.5 0 924.5 17 885 45C845.5 73 816.5 90 816.5 90C816.5 90 758 131 630.5 140.5Z" fill="#FFBB02"/>
<rect x="80" y="47" width="31" height="3" rx="1.5" fill="black"/>
<rect x="80" y="58" width="31" height="3" rx="1.5" fill="black"/>
<rect x="80" y="69" width="31" height="3" rx="1.5" fill="black"/>
</svg>
