<svg width="119" height="119" viewBox="0 0 119 119" fill="none" xmlns="http://www.w3.org/2000/svg">
<path d="M0 52.6667H13.1667V65.8333H0V52.6667ZM52.6667 13.1667H65.8333V39.5H52.6667V13.1667ZM39.5 52.6667H65.8333V79H52.6667V65.8333H39.5V52.6667ZM79 52.6667H92.1667V65.8333H105.333V52.6667H118.5V65.8333H105.333V79H118.5V105.333H105.333V118.5H92.1667V105.333H65.8333V118.5H52.6667V92.1667H79V79H92.1667V65.8333H79V52.6667ZM105.333 105.333V79H92.1667V105.333H105.333ZM79 0H118.5V39.5H79V0ZM92.1667 13.1667V26.3333H105.333V13.1667H92.1667ZM0 0H39.5V39.5H0V0ZM13.1667 13.1667V26.3333H26.3333V13.1667H13.1667ZM0 79H39.5V118.5H0V79ZM13.1667 92.1667V105.333H26.3333V92.1667H13.1667Z" fill="black"/>
</svg>
