<svg width="1440" height="5735" viewBox="0 0 1440 5735" fill="none" xmlns="http://www.w3.org/2000/svg">
<mask id="mask0_549_2314" style="mask-type:alpha" maskUnits="userSpaceOnUse" x="0" y="0" width="1440" height="5735">
<rect width="1440" height="5735" fill="white"/>
</mask>
<g mask="url(#mask0_549_2314)">
<path fill-rule="evenodd" clip-rule="evenodd" d="M1112.74 3828.24C1151.92 3832.82 1180.52 3862.4 1207.8 3890.9C1234.22 3918.5 1263.23 3947.74 1263.71 3985.96C1264.2 4024.48 1240.52 4059.63 1210.22 4083.44C1183.04 4104.79 1147.22 4102.16 1112.74 4104.58C1073.91 4107.29 1030.44 4123.1 1000.59 4098.1C969.79 4072.3 972.507 4026.11 971.109 3985.96C969.637 3943.66 964.232 3897.21 992.507 3865.72C1021.67 3833.25 1069.39 3823.17 1112.74 3828.24Z" fill="#FF9900"/>
<path fill-rule="evenodd" clip-rule="evenodd" d="M922.117 3464.43C967.432 3469.72 1000.5 3503.86 1032.05 3536.76C1062.61 3568.63 1096.15 3602.38 1096.71 3646.5C1097.27 3690.97 1069.89 3731.55 1034.85 3759.03C1003.42 3783.68 961.992 3780.65 922.117 3783.43C877.211 3786.57 826.936 3804.81 792.425 3775.96C756.801 3746.17 759.943 3692.85 758.327 3646.5C756.625 3597.67 750.374 3544.04 783.073 3507.7C816.794 3470.21 871.99 3458.58 922.117 3464.43Z" fill="#FF9900"/>
<path fill-rule="evenodd" clip-rule="evenodd" d="M1287.57 2184.76C1301.97 2226.91 1278.1 2268.22 1272.72 2312.43C1265.56 2371.14 1301.88 2450.98 1251.39 2481.78C1201.14 2512.44 1148.34 2440.2 1092.19 2422.56C1040.85 2406.44 968.672 2431.01 941.641 2384.48C914.611 2337.96 963.371 2284.89 983.131 2234.84C999.301 2193.89 1010.74 2151.77 1044.62 2123.65C1085.98 2089.31 1135.97 2051.58 1188.09 2064.69C1240.49 2077.87 1270.1 2133.63 1287.57 2184.76Z" fill="#FED700"/>
<path fill-rule="evenodd" clip-rule="evenodd" d="M730.115 2511.7C749.737 2471.72 795.824 2459.39 830.895 2431.93C877.469 2395.47 908.237 2313.34 965.725 2327.26C1022.93 2341.11 1009.19 2429.53 1036.42 2481.71C1061.32 2529.41 1129.74 2563.07 1115.95 2615.09C1102.16 2667.1 1030.16 2670.14 980.801 2691.56C940.409 2709.08 902.537 2730.78 858.694 2726.71C805.174 2721.74 743.144 2713.07 715.558 2666.94C687.826 2620.57 706.311 2560.21 730.115 2511.7Z" fill="#FED700"/>
<rect x="1693.4" y="544" width="459.309" height="2033.53" transform="rotate(73.1668 1693.4 544)" fill="#FFC001"/>
<path fill-rule="evenodd" clip-rule="evenodd" d="M1422.95 -17.6526C1440.15 -15.5766 1452.62 -1.21884 1462.42 13.1053C1470.34 24.6873 1468.96 38.8158 1471.08 52.7015C1473.92 71.2781 1489.58 92.982 1476.71 106.642C1463.9 120.247 1441.61 103.63 1422.95 103.81C1403.92 103.995 1383.54 118.939 1368.15 107.694C1352.22 96.0566 1352.15 72.4535 1353 52.7015C1353.81 33.9502 1359.48 15.5577 1372.69 2.27064C1385.92 -11.0312 1404.36 -19.8977 1422.95 -17.6526Z" fill="url(#paint0_linear_549_2314)"/>
<path fill-rule="evenodd" clip-rule="evenodd" d="M1471.96 506.663C1501.14 510.623 1522.31 538.013 1538.95 565.339C1552.4 587.434 1550.06 614.387 1553.66 640.877C1558.48 676.315 1585.06 717.72 1563.22 743.779C1541.47 769.732 1503.62 738.032 1471.96 738.377C1439.64 738.729 1405.04 767.238 1378.91 745.786C1351.87 723.585 1351.75 678.557 1353.2 640.877C1354.57 605.105 1364.2 570.018 1386.63 544.67C1409.08 519.294 1440.39 502.38 1471.96 506.663Z" fill="url(#paint1_linear_549_2314)"/>
<path fill-rule="evenodd" clip-rule="evenodd" d="M173.13 721.726C166.026 786.679 131.287 832.743 96.9869 868.688C69.2533 897.751 36.9156 891.371 4.66338 898.269C-38.4843 907.497 -90.5645 965.008 -120.27 915.154C-149.855 865.503 -108.586 782.417 -106.479 711.741C-104.328 639.606 -135.974 561.184 -108.006 503.804C-79.0609 444.421 -24.7167 446.098 20.6374 450.949C63.6939 455.554 105.266 478.554 134.066 529.693C162.898 580.889 180.814 651.481 173.13 721.726Z" fill="url(#paint2_linear_549_2314)"/>
<path d="M-34.2812 1903.69C-34.2812 1903.69 136.628 1847.52 367.173 1908.16C597.719 1968.8 781.719 1903.69 781.719 1903.69" stroke="url(#paint3_linear_549_2314)" stroke-width="16" stroke-linecap="round"/>
<path fill-rule="evenodd" clip-rule="evenodd" d="M566.344 1864C535.758 1864.11 519.454 1869.16 494.651 1871.91C460.322 1875.71 403.386 1876.52 395.7 1882.9C387.928 1889.36 427.815 1894.97 462.194 1898.88C491.842 1902.26 529.56 1901.85 566.344 1902.34C609.244 1902.92 656.361 1905.97 690.6 1901.97C726.717 1897.74 743.318 1889.67 732.409 1882.9C722.592 1876.82 674.146 1875.14 641.315 1871.4C616.505 1868.58 597.231 1863.9 566.344 1864Z" fill="url(#paint4_linear_549_2314)"/>
<path fill-rule="evenodd" clip-rule="evenodd" d="M188.486 1913.9C222.807 1915.04 249.593 1918.85 277.098 1922.91C310.955 1927.9 360.193 1931.6 363.525 1939.71C366.912 1947.95 325.273 1953.98 292.071 1959.34C262.226 1964.16 227.581 1968.49 188.486 1967.95C151.326 1967.44 123.098 1962.06 98.8875 1956.69C76.9879 1951.83 66.7227 1946 61.0708 1939.71C53.7284 1931.52 32.238 1921.82 62.1523 1915.76C92.1557 1909.68 145.238 1912.46 188.486 1913.9Z" fill="url(#paint5_linear_549_2314)"/>
<path fill-rule="evenodd" clip-rule="evenodd" d="M1424.68 2704.57C1474.26 2710.37 1510.44 2747.83 1544.96 2783.93C1578.4 2818.9 1615.1 2855.94 1615.71 2904.34C1616.32 2953.15 1586.36 2997.67 1548.03 3027.82C1513.64 3054.87 1468.31 3051.54 1424.68 3054.6C1375.55 3058.04 1320.54 3078.06 1282.79 3046.4C1243.81 3013.72 1247.25 2955.21 1245.48 2904.34C1243.62 2850.77 1236.78 2791.93 1272.55 2752.05C1309.45 2710.92 1369.84 2698.15 1424.68 2704.57Z" fill="#FFB800"/>
<path fill-rule="evenodd" clip-rule="evenodd" d="M106.945 2981.32C134.389 3037.34 133.374 3090.37 132.179 3141.1C131.02 3190.24 130.601 3243.68 100.328 3262.05C69.8045 3280.56 22.8018 3264.26 -20.3582 3233.61C-59.0752 3206.12 -85.4168 3155.62 -114.736 3109.31C-147.756 3057.15 -194.961 3004.66 -198.611 2952.04C-202.38 2897.71 -163.168 2880.06 -132.062 2859.53C-99.3028 2837.92 -66.3281 2808.97 -18.613 2833.28C30.5934 2858.35 76.5852 2919.34 106.945 2981.32Z" fill="#FFB800"/>
<rect x="1798.19" y="4705" width="459.309" height="2033.53" transform="rotate(90 1798.19 4705)" fill="#FFB800"/>
<path d="M172.219 149C64.7188 150 -0.28125 116 -0.28125 116V0H518.219C518.219 0 505.219 16 442.219 61.5C379.219 107 351.219 114 351.219 114C351.219 114 279.719 148 172.219 149Z" fill="#FFD802"/>
<path d="M630.219 140.5C502.719 150 400.719 90 400.719 90C400.719 90 411.219 83.5 458.719 45C506.219 6.5 511.719 0 511.719 0H941.219C941.219 0 924.219 17 884.719 45C845.219 73 816.219 90 816.219 90C816.219 90 757.719 131 630.219 140.5Z" fill="#FFBB02"/>
</g>
<defs>
<linearGradient id="paint0_linear_549_2314" x1="1417.22" y1="-18" x2="1417.22" y2="112" gradientUnits="userSpaceOnUse">
<stop stop-color="#FFCA00"/>
<stop offset="1" stop-color="#FFBA02"/>
</linearGradient>
<linearGradient id="paint1_linear_549_2314" x1="1462.22" y1="506" x2="1462.22" y2="754" gradientUnits="userSpaceOnUse">
<stop stop-color="#FED700"/>
<stop offset="1" stop-color="#FED700"/>
</linearGradient>
<linearGradient id="paint2_linear_549_2314" x1="174.706" y1="700.027" x2="-124.556" y2="689.34" gradientUnits="userSpaceOnUse">
<stop stop-color="#FFBA02"/>
<stop offset="1" stop-color="#FFCA00"/>
</linearGradient>
<linearGradient id="paint3_linear_549_2314" x1="648.356" y1="1922.83" x2="198.993" y2="2045.75" gradientUnits="userSpaceOnUse">
<stop stop-color="#FFBE01"/>
<stop offset="1" stop-color="#FED700"/>
</linearGradient>
<linearGradient id="paint4_linear_549_2314" x1="450.45" y1="1895.72" x2="647.593" y2="1926.15" gradientUnits="userSpaceOnUse">
<stop stop-color="#FFBE01"/>
<stop offset="1" stop-color="#FED700"/>
</linearGradient>
<linearGradient id="paint5_linear_549_2314" x1="311.91" y1="1956.41" x2="126.227" y2="1975.44" gradientUnits="userSpaceOnUse">
<stop stop-color="#FFBE01"/>
<stop offset="1" stop-color="#FED700"/>
</linearGradient>
</defs>
</svg>
