<svg width="168" height="28" viewBox="0 0 168 28" fill="none" xmlns="http://www.w3.org/2000/svg">
<path d="M16.4474 0.818181H21.983V17.821C21.983 19.7301 21.527 21.4006 20.6151 22.8324C19.7116 24.2642 18.446 25.3807 16.8182 26.1818C15.1903 26.9744 13.294 27.3707 11.1293 27.3707C8.95597 27.3707 7.0554 26.9744 5.42756 26.1818C3.79972 25.3807 2.53409 24.2642 1.63068 22.8324C0.727273 21.4006 0.275568 19.7301 0.275568 17.821V0.818181H5.81108V17.348C5.81108 18.3452 6.02841 19.2315 6.46307 20.0071C6.90625 20.7827 7.52841 21.392 8.32955 21.8352C9.13068 22.2784 10.0639 22.5 11.1293 22.5C12.2031 22.5 13.1364 22.2784 13.929 21.8352C14.7301 21.392 15.348 20.7827 15.7827 20.0071C16.2259 19.2315 16.4474 18.3452 16.4474 17.348V0.818181ZM26.5373 27V0.818181H31.9833V10.6619H32.1495C32.3881 10.1335 32.7333 9.59659 33.185 9.05114C33.6452 8.49716 34.2418 8.03693 34.9748 7.67045C35.7163 7.29545 36.6367 7.10795 37.7362 7.10795C39.168 7.10795 40.489 7.48295 41.6992 8.23295C42.9094 8.97443 43.8768 10.0952 44.6012 11.5952C45.3256 13.0866 45.6879 14.9574 45.6879 17.2074C45.6879 19.3977 45.3342 21.2472 44.6268 22.7557C43.9279 24.2557 42.9734 25.3935 41.7631 26.169C40.5614 26.9361 39.2148 27.3196 37.7234 27.3196C36.6665 27.3196 35.7674 27.1449 35.0259 26.7955C34.293 26.446 33.6921 26.0071 33.2234 25.4787C32.7546 24.9418 32.3967 24.4006 32.1495 23.8551H31.9066V27H26.5373ZM31.8683 17.1818C31.8683 18.3494 32.0302 19.3679 32.354 20.2372C32.6779 21.1065 33.1467 21.7841 33.7603 22.2699C34.3739 22.7472 35.1197 22.9858 35.9975 22.9858C36.8839 22.9858 37.6339 22.7429 38.2475 22.2571C38.8612 21.7628 39.3256 21.081 39.641 20.2116C39.9648 19.3338 40.1268 18.3239 40.1268 17.1818C40.1268 16.0483 39.9691 15.0511 39.6538 14.1903C39.3384 13.3295 38.8739 12.6562 38.2603 12.1705C37.6467 11.6847 36.8924 11.4418 35.9975 11.4418C35.1112 11.4418 34.3612 11.6761 33.7475 12.1449C33.1424 12.6136 32.6779 13.2784 32.354 14.1392C32.0302 15 31.8683 16.0142 31.8683 17.1818ZM58.2706 27.3835C56.2507 27.3835 54.5121 26.9744 53.0547 26.1562C51.6058 25.3295 50.4893 24.1619 49.7053 22.6534C48.9212 21.1364 48.5291 19.3423 48.5291 17.2713C48.5291 15.2514 48.9212 13.4787 49.7053 11.9531C50.4893 10.4276 51.593 9.23864 53.0163 8.38636C54.4482 7.53409 56.1271 7.10795 58.0533 7.10795C59.3487 7.10795 60.5547 7.31676 61.6712 7.73438C62.7962 8.14347 63.7763 8.76136 64.6115 9.58807C65.4553 10.4148 66.1115 11.4545 66.5803 12.7074C67.049 13.9517 67.2834 15.4091 67.2834 17.0795V18.5753H50.7024V15.2003H62.157C62.157 14.4162 61.9865 13.7216 61.6456 13.1165C61.3047 12.5114 60.8317 12.0384 60.2266 11.6974C59.63 11.348 58.9354 11.1733 58.1428 11.1733C57.3161 11.1733 56.5831 11.3651 55.9439 11.7486C55.3132 12.1236 54.8189 12.6307 54.4609 13.2699C54.103 13.9006 53.9197 14.6037 53.9112 15.3793V18.5881C53.9112 19.5597 54.0902 20.3991 54.4482 21.1065C54.8146 21.8139 55.3303 22.3594 55.995 22.7429C56.6598 23.1264 57.4482 23.3182 58.3601 23.3182C58.9652 23.3182 59.5192 23.233 60.022 23.0625C60.5249 22.892 60.9553 22.6364 61.3132 22.2955C61.6712 21.9545 61.9439 21.5369 62.1314 21.0426L67.1683 21.375C66.9126 22.5852 66.3885 23.642 65.5959 24.5455C64.8118 25.4403 63.7976 26.1392 62.5533 26.642C61.3175 27.1364 59.8899 27.3835 58.2706 27.3835ZM70.8374 27V7.36364H76.1172V10.7898H76.3217C76.6797 9.57102 77.2805 8.65057 78.1243 8.02841C78.968 7.39773 79.9396 7.08239 81.0391 7.08239C81.3118 7.08239 81.6058 7.09943 81.9212 7.13352C82.2365 7.16761 82.5135 7.21449 82.7521 7.27415V12.1065C82.4964 12.0298 82.1428 11.9616 81.6911 11.902C81.2393 11.8423 80.826 11.8125 80.451 11.8125C79.6499 11.8125 78.9339 11.9872 78.3033 12.3366C77.6811 12.6776 77.1868 13.1548 76.8203 13.7685C76.4624 14.3821 76.2834 15.0895 76.2834 15.8906V27H70.8374ZM94.0021 27V0.818181H111.644V5.3821H99.5376V11.6207H110.737V16.1847H99.5376V22.4361H111.695V27H94.0021ZM121.542 27.3707C120.289 27.3707 119.173 27.1534 118.193 26.7188C117.213 26.2756 116.437 25.6236 115.866 24.7628C115.304 23.8935 115.022 22.8111 115.022 21.5156C115.022 20.4247 115.223 19.5085 115.623 18.767C116.024 18.0256 116.569 17.429 117.26 16.9773C117.95 16.5256 118.734 16.1847 119.612 15.9545C120.498 15.7244 121.427 15.5625 122.399 15.4688C123.541 15.3494 124.461 15.2386 125.16 15.1364C125.859 15.0256 126.366 14.8636 126.681 14.6506C126.997 14.4375 127.154 14.1222 127.154 13.7045V13.6278C127.154 12.8182 126.899 12.1918 126.387 11.7486C125.885 11.3054 125.169 11.0838 124.24 11.0838C123.26 11.0838 122.48 11.3011 121.9 11.7358C121.321 12.1619 120.937 12.6989 120.75 13.3466L115.713 12.9375C115.968 11.7443 116.471 10.7131 117.221 9.84375C117.971 8.96591 118.939 8.29261 120.123 7.82386C121.316 7.34659 122.697 7.10795 124.265 7.10795C125.356 7.10795 126.4 7.2358 127.397 7.49148C128.403 7.74716 129.294 8.14347 130.069 8.6804C130.853 9.21733 131.471 9.90767 131.923 10.7514C132.375 11.5866 132.6 12.5881 132.6 13.7557V27H127.436V24.277H127.282C126.967 24.8906 126.545 25.4318 126.017 25.9006C125.488 26.3608 124.853 26.723 124.112 26.9872C123.37 27.2429 122.514 27.3707 121.542 27.3707ZM123.102 23.6122C123.903 23.6122 124.61 23.4545 125.224 23.1392C125.838 22.8153 126.319 22.3807 126.669 21.8352C127.018 21.2898 127.193 20.6719 127.193 19.9815V17.8977C127.022 18.0085 126.788 18.1108 126.49 18.2045C126.2 18.2898 125.872 18.3707 125.505 18.4474C125.139 18.5156 124.772 18.5795 124.406 18.6392C124.039 18.6903 123.707 18.7372 123.409 18.7798C122.77 18.8736 122.211 19.0227 121.734 19.2273C121.257 19.4318 120.886 19.7088 120.622 20.0582C120.358 20.3991 120.225 20.8253 120.225 21.3366C120.225 22.0781 120.494 22.6449 121.031 23.0369C121.576 23.4205 122.267 23.6122 123.102 23.6122ZM147.27 7.36364V11.4545H135.445V7.36364H147.27ZM138.13 2.65909H143.576V20.9659C143.576 21.4687 143.652 21.8608 143.806 22.142C143.959 22.4148 144.172 22.6065 144.445 22.7173C144.726 22.8281 145.05 22.8835 145.417 22.8835C145.672 22.8835 145.928 22.8622 146.184 22.8196C146.439 22.7685 146.635 22.7301 146.772 22.7045L147.628 26.7571C147.355 26.8423 146.972 26.9403 146.478 27.0511C145.983 27.1705 145.382 27.2429 144.675 27.2685C143.363 27.3196 142.212 27.1449 141.223 26.7443C140.243 26.3437 139.48 25.7216 138.935 24.8778C138.39 24.0341 138.121 22.9687 138.13 21.6818V2.65909ZM166.91 12.9631L161.924 13.2699C161.839 12.8437 161.656 12.4602 161.374 12.1193C161.093 11.7699 160.722 11.4929 160.262 11.2884C159.81 11.0753 159.269 10.9688 158.638 10.9688C157.795 10.9688 157.083 11.1477 156.504 11.5057C155.924 11.8551 155.634 12.3239 155.634 12.9119C155.634 13.3807 155.822 13.777 156.197 14.1009C156.572 14.4247 157.215 14.6847 158.127 14.8807L161.681 15.5966C163.59 15.9886 165.013 16.6193 165.951 17.4886C166.888 18.358 167.357 19.5 167.357 20.9148C167.357 22.2017 166.978 23.331 166.219 24.3026C165.469 25.2741 164.438 26.0327 163.126 26.5781C161.822 27.1151 160.317 27.3835 158.613 27.3835C156.013 27.3835 153.942 26.8423 152.4 25.7599C150.866 24.669 149.967 23.1861 149.702 21.3111L155.059 21.0298C155.221 21.8224 155.613 22.4276 156.235 22.8452C156.857 23.2543 157.654 23.4588 158.626 23.4588C159.58 23.4588 160.347 23.2756 160.927 22.9091C161.515 22.5341 161.813 22.0526 161.822 21.4645C161.813 20.9702 161.604 20.5653 161.195 20.25C160.786 19.9261 160.156 19.679 159.303 19.5085L155.903 18.831C153.985 18.4474 152.558 17.7827 151.62 16.8366C150.691 15.8906 150.227 14.6847 150.227 13.2188C150.227 11.9574 150.567 10.8707 151.249 9.95881C151.94 9.04688 152.907 8.34375 154.151 7.84943C155.404 7.35511 156.87 7.10795 158.549 7.10795C161.029 7.10795 162.981 7.6321 164.404 8.6804C165.836 9.72869 166.671 11.1562 166.91 12.9631Z" fill="black"/>
</svg>
